<svg width="180" height="52" viewBox="0 0 180 52" fill="none" xmlns="http://www.w3.org/2000/svg">
<path d="M32.8292 16.2738C32.8292 13.0898 31.885 9.97734 30.1161 7.32998C28.3472 4.68262 25.833 2.61925 22.8914 1.40081C19.9498 0.18236 16.713 -0.136442 13.5902 0.484717C10.4674 1.10588 7.59895 2.6391 5.34755 4.89049C3.09616 7.14189 1.56294 10.0103 0.941779 13.1331C0.32062 16.2559 0.639421 19.4927 1.85787 22.4343C3.07632 25.3759 5.13968 27.8901 7.78705 29.6591C10.4344 31.428 13.5469 32.3721 16.7308 32.3721C21.0004 32.3721 25.095 30.676 28.1141 27.657C31.1331 24.638 32.8292 20.5433 32.8292 16.2738ZM30.567 24.5509H2.89464L16.7308 0.175392L30.567 24.5509ZM23.4297 23.9196V12.9769L19.3613 5.85717V11.3987L13.7847 14.0291V6.40079L9.73382 13.503V23.9196H13.7847V17.9572L19.3613 15.3969V23.9196H23.4297Z" fill="white"/>
<path d="M179.187 14.3623V8.31223C178.435 8.17478 177.672 8.10436 176.908 8.10179C175.162 8.0911 173.449 8.58093 171.973 9.5133C170.497 10.4457 169.319 11.7815 168.578 13.3627V8.76817H162.738V32.3019H168.49V20.9033C168.427 19.961 168.564 19.016 168.893 18.1306C169.222 17.2451 169.734 16.4395 170.397 15.7667C171.06 15.0939 171.858 14.5693 172.738 14.2275C173.619 13.8856 174.562 13.7343 175.505 13.7836C176.751 13.7578 177.992 13.9538 179.17 14.3623H179.187ZM160.704 20.5175C160.704 14.0115 156.916 7.82121 147.043 7.82121C137.17 7.82121 133.383 14.0291 133.383 20.5175C133.383 27.006 137.17 33.1963 147.043 33.1963C156.916 33.1963 160.704 27.006 160.704 20.5175ZM154.707 20.5175C154.707 24.6035 152.62 28.479 147.043 28.479C141.467 28.479 139.38 24.5509 139.38 20.5175C139.38 16.4842 141.467 12.5385 147.043 12.5385C152.62 12.5385 154.707 16.414 154.707 20.5175ZM132.295 20.6052C132.295 14.6428 128.63 8.10179 120.23 8.10179C118.593 7.97314 116.95 8.27436 115.464 8.97562C113.978 9.67688 112.702 10.7539 111.76 12.1001V0H105.938V32.3019H111.69V29.0577C112.111 30.4782 115.566 33.1963 120.16 33.1963C128.56 33.1963 132.225 26.6552 132.225 20.6052H132.295ZM126.298 20.6052C126.298 24.6035 124.264 28.479 118.845 28.479C113.426 28.479 111.427 24.5509 111.427 20.6052C111.427 16.6595 113.479 12.8191 118.845 12.8191C124.211 12.8191 126.298 16.6771 126.298 20.6052ZM97.0823 32.3019H102.817V0H97.0823V32.3019ZM73.7414 22.0607H94.5746V21.1839C94.5746 14.2746 90.8218 7.83874 81.0365 7.83874C73.1978 7.83874 67.744 12.8541 67.744 20.728C67.744 27.006 71.4617 33.1963 81.4048 33.1963C84.0678 33.3655 86.7174 32.7017 88.9862 31.2971C91.2549 29.8925 93.0303 27.8167 94.066 25.3576H87.8231C86.7008 27.3216 85.0348 28.7421 81.247 28.7421C80.3081 28.8315 79.3609 28.7263 78.4646 28.4331C77.5682 28.1398 76.742 27.6648 76.0375 27.0377C75.3331 26.4107 74.7656 25.645 74.3705 24.7886C73.9755 23.9323 73.7613 23.0036 73.7414 22.0607ZM73.7414 18.1501C74.0068 16.4004 74.9051 14.809 76.2659 13.6776C77.6267 12.5463 79.3555 11.9537 81.1242 12.0124C82.9104 11.912 84.669 12.4877 86.05 13.625C87.431 14.7623 88.3332 16.3778 88.5772 18.1501H73.7414ZM58.8531 32.3019H65.096V0.52609H58.8531V12.9067H42.8248V0.52609H36.5819V32.3019H42.8248V17.8871H58.8531V32.3019Z" fill="white"/>
<path d="M33.4605 43.1745H31.4613L30.6371 46.6818H32.7941V47.3481H30.4442L29.62 50.8554H28.9186L29.7603 47.3481H26.4284L25.5867 50.8554H24.8852L25.7445 47.3481H23.9908V46.6642H25.9549L26.7791 43.157H24.6222V42.5081H26.937L27.7085 39.0885H28.4275L27.6209 42.5081H30.9528L31.7419 39.0885H32.4434L31.6367 42.5081H33.3903L33.4605 43.1745ZM29.9532 46.6818L30.7774 43.1745H27.4455L26.6038 46.6818H29.9532Z" fill="white"/>
<path d="M40.1944 51.1009C39.8148 51.1249 39.4341 51.1249 39.0545 51.1009L37.8621 50.8554C37.4763 50.8554 37.108 50.6625 36.7397 50.5397C36.412 50.4212 36.0952 50.2745 35.7928 50.1013L36.9677 47.9619C37.5271 48.2635 38.1144 48.5101 38.7214 48.6984C39.2038 48.8515 39.7059 48.9342 40.2119 48.9439C40.738 48.9439 41.0011 48.8036 41.0011 48.523C41.0011 48.3828 40.8959 48.26 40.6854 48.1372C40.2966 47.967 39.891 47.8377 39.4754 47.7514C38.9624 47.6143 38.4586 47.4444 37.9673 47.2429C37.6093 47.1155 37.2768 46.9255 36.9853 46.6817C36.7523 46.5045 36.5707 46.2685 36.4592 45.9978C36.3485 45.719 36.2948 45.4209 36.3013 45.121C36.2987 44.6976 36.3885 44.2786 36.5644 43.8935C36.7417 43.5201 36.9921 43.1861 37.3009 42.9114C37.6399 42.6205 38.0333 42.3999 38.4583 42.2626C38.9237 42.1177 39.4089 42.0467 39.8963 42.0521C40.489 42.0582 41.0784 42.1407 41.6499 42.2976C42.3351 42.471 42.9995 42.718 43.6315 43.0342L42.4566 45.0509C41.9793 44.7825 41.4807 44.5538 40.966 44.3669C40.5982 44.2447 40.2137 44.1796 39.8261 44.174C39.6336 44.1664 39.4417 44.2024 39.265 44.2793C39.1944 44.3055 39.134 44.3537 39.093 44.4169C39.0519 44.4801 39.0323 44.5548 39.037 44.63C39.0191 44.7049 39.0191 44.783 39.037 44.858L39.265 45.0333L39.7034 45.2087C39.8963 45.2087 40.1243 45.3314 40.4048 45.384C40.9516 45.5307 41.4901 45.7063 42.0182 45.9101C42.3972 46.0619 42.7517 46.2687 43.0704 46.5239C43.3176 46.7099 43.5112 46.9579 43.6315 47.2429C43.7406 47.5465 43.7941 47.8673 43.7894 48.1899C43.8073 48.5988 43.7276 49.0062 43.5568 49.3782C43.386 49.7503 43.1291 50.0763 42.8073 50.3293C42.0448 50.8667 41.1265 51.1379 40.1944 51.1009Z" fill="white"/>
<path d="M46.49 41.4383V38.7728H49.5413V41.4383H46.49ZM46.49 50.943V42.1749H49.5413V50.943H46.49Z" fill="white"/>
<path d="M61.1679 50.9431H58.1166V46.0154C58.1515 45.6751 58.0507 45.3348 57.836 45.0684C57.7541 44.9768 57.6542 44.9031 57.5426 44.8518C57.431 44.8005 57.31 44.7728 57.1871 44.7703C56.8811 44.7927 56.5912 44.9161 56.3629 45.121C56.0795 45.3674 55.8625 45.6809 55.7316 46.0329V50.9431H52.6803V42.1749H55.416V43.4726C55.7187 42.9922 56.1585 42.6134 56.6786 42.3854C57.2874 42.1515 57.939 42.0498 58.59 42.0872C59.0719 42.0652 59.5507 42.1743 59.9754 42.4029C60.291 42.6036 60.5504 42.8812 60.7295 43.2096C60.906 43.5313 61.0247 43.8815 61.0802 44.2442C61.1325 44.575 61.1618 44.909 61.1679 45.2438V50.9431Z" fill="white"/>
<path d="M70.1465 50.4521C69.7062 50.6518 69.2483 50.8103 68.7787 50.9256C68.3109 51.0573 67.8267 51.1223 67.3407 51.1185C67.0151 51.1225 66.6905 51.0812 66.3762 50.9957C66.0786 50.9102 65.8032 50.7606 65.5695 50.5573C65.3173 50.3473 65.1239 50.0754 65.0084 49.7682C64.872 49.3857 64.8066 48.9816 64.8155 48.5757V44.5599H63.7633V42.1749H64.798V39.4217H67.8493V42.1749H69.4977V44.5599H67.8493V47.4534C67.8362 47.5622 67.845 47.6725 67.8751 47.7779C67.9052 47.8833 67.9561 47.9816 68.0246 48.0671C68.0866 48.1283 68.1609 48.1755 68.2425 48.2058C68.3241 48.236 68.4113 48.2485 68.4981 48.2425C68.6673 48.2572 68.8375 48.2572 69.0067 48.2425C69.2049 48.188 69.3984 48.1176 69.5854 48.0321L70.1465 50.4521Z" fill="white"/>
<path d="M75.1269 51.1009C74.7256 51.104 74.3272 51.0327 73.9519 50.8905C73.6037 50.7592 73.287 50.5561 73.0225 50.2942C72.7543 50.0414 72.5396 49.7372 72.3912 49.3999C72.1484 48.8403 72.0959 48.2165 72.2416 47.6242C72.3873 47.0319 72.7232 46.5037 73.1979 46.1206C73.5258 45.8814 73.8941 45.7032 74.2851 45.5945C74.7628 45.451 75.2594 45.38 75.7582 45.384C76.361 45.3531 76.9624 45.4674 77.5118 45.7172V45.4542C77.5236 45.2832 77.4984 45.1116 77.4378 44.9512C77.3773 44.7908 77.2829 44.6454 77.1611 44.5248C76.8365 44.3047 76.4475 44.1997 76.0563 44.2266C75.6005 44.2237 75.1483 44.307 74.7235 44.4722C74.2725 44.6586 73.8433 44.8939 73.4434 45.1736L72.5315 43.1219C73.6741 42.4036 75.0055 42.0433 76.3544 42.0872C77.468 42.0065 78.5724 42.3373 79.4583 43.0166C79.8372 43.3708 80.1328 43.8046 80.3238 44.2867C80.5148 44.7689 80.5966 45.2874 80.5631 45.8049V47.5586C80.5425 47.7808 80.5981 48.0035 80.721 48.1899C80.8784 48.3338 81.0865 48.4094 81.2997 48.4003V51.0658L80.5105 51.1886H79.8441C79.409 51.2122 78.9763 51.1086 78.5991 50.8905C78.3108 50.6646 78.117 50.3395 78.0554 49.9786V49.6629C77.7115 50.1333 77.2685 50.5224 76.7577 50.8028C76.2489 51.0409 75.6871 51.1436 75.1269 51.1009ZM76.0388 48.8387C76.2288 48.8339 76.4175 48.8045 76.5999 48.751C76.7804 48.6941 76.9517 48.6114 77.1085 48.5055C77.2206 48.4198 77.3208 48.3195 77.4066 48.2074C77.4728 48.1152 77.5095 48.0052 77.5118 47.8917V47.2429L76.9156 47.0675H76.3369C76.0043 47.0533 75.6766 47.1522 75.4074 47.3481C75.2918 47.4286 75.1978 47.5363 75.1336 47.6616C75.0693 47.787 75.0369 47.9263 75.0392 48.0671C75.035 48.1817 75.0583 48.2955 75.1072 48.3993C75.156 48.503 75.2289 48.5935 75.3198 48.6633C75.5309 48.8055 75.7859 48.8677 76.0388 48.8387Z" fill="white"/>
<path d="M87.0516 51.1009C86.4278 51.1353 85.8032 51.052 85.2103 50.8554C84.6237 50.6496 84.0947 50.3069 83.6671 49.8558L84.0704 49.2947C84.4698 49.6887 84.9398 50.0039 85.4558 50.2241C85.9616 50.432 86.5048 50.5335 87.0516 50.5222C87.671 50.5495 88.2837 50.3841 88.8052 50.0487C89.0172 49.9025 89.1892 49.7056 89.3056 49.4759C89.422 49.2461 89.4791 48.9909 89.4716 48.7335C89.4716 48.4944 89.4113 48.2592 89.2962 48.0496C89.1705 47.8549 88.9949 47.6975 88.7877 47.5937C88.5285 47.4432 88.2516 47.3254 87.9635 47.2429L86.8061 46.9273C86.3326 46.8221 85.9292 46.6993 85.5785 46.5941C85.2726 46.5058 84.9826 46.3697 84.7192 46.1908C84.5057 46.0488 84.331 45.856 84.2107 45.6296C84.0979 45.3637 84.044 45.0765 84.0529 44.7878C84.0398 44.3954 84.1178 44.0052 84.2808 43.648C84.4433 43.3349 84.6705 43.06 84.9472 42.8413C85.2429 42.6248 85.5757 42.4643 85.9292 42.3678C86.8939 42.1049 87.9188 42.1728 88.8403 42.5607C89.3003 42.748 89.7048 43.0498 90.0152 43.4375L89.5593 43.876C89.2723 43.5342 88.8958 43.2792 88.472 43.1394C88.0254 42.9632 87.5492 42.8739 87.0691 42.8764C86.7736 42.8744 86.479 42.9097 86.1923 42.9816C85.9359 43.0438 85.6926 43.1506 85.4733 43.2973C85.266 43.4363 85.102 43.6307 84.9998 43.8584C84.878 44.1095 84.8179 44.3861 84.8245 44.6651C84.8175 44.8747 84.8533 45.0835 84.9297 45.2789C85.0196 45.4456 85.1529 45.5849 85.3155 45.6822C85.5283 45.809 85.7588 45.9036 85.9994 45.9628L86.999 46.2434L88.3843 46.6292C88.7445 46.7287 89.0875 46.8824 89.4014 47.0851C89.6745 47.2396 89.8983 47.4681 90.0472 47.7442C90.1961 48.0203 90.2641 48.3328 90.2432 48.6458C90.2577 49.0016 90.1873 49.3558 90.0379 49.679C89.8885 50.0022 89.6643 50.2852 89.3839 50.5047C88.6941 50.9566 87.8736 51.1664 87.0516 51.1009Z" fill="white"/>
<path d="M97.2577 51.1009C96.6949 51.1055 96.138 50.9858 95.6268 50.7502C95.126 50.5161 94.6784 50.1818 94.3116 49.7682C93.9422 49.3435 93.6513 48.8566 93.4523 48.3302C93.2398 47.7701 93.1328 47.1756 93.1366 46.5766C93.1269 45.9771 93.2341 45.3814 93.4523 44.8229C93.6472 44.2998 93.9387 43.8179 94.3116 43.4025C94.6707 43 95.1058 42.6722 95.5917 42.438C96.0981 42.2066 96.6483 42.0869 97.2051 42.0873C97.7701 42.0801 98.3288 42.2063 98.8359 42.4555C99.3334 42.6789 99.7763 43.0081 100.134 43.42C100.507 43.8355 100.798 44.3173 100.993 44.8405C101.197 45.4023 101.298 45.9964 101.291 46.5941V46.8045C101.291 46.8922 101.291 46.9448 101.291 46.9624H93.9784C93.9973 47.4416 94.1105 47.9123 94.3116 48.3477C94.4792 48.7581 94.7232 49.133 95.0306 49.4525C95.3178 49.7626 95.6634 50.0129 96.0477 50.1891C96.4391 50.3648 96.8637 50.4545 97.2927 50.4521C97.5779 50.4545 97.8618 50.4131 98.1345 50.3293C98.3807 50.239 98.616 50.1214 98.8359 49.9786C99.0746 49.8328 99.2928 49.6559 99.4848 49.4525C99.669 49.2513 99.8172 49.02 99.9232 48.7686L100.625 48.979C100.51 49.2944 100.337 49.5858 100.116 49.8383C99.88 50.0974 99.6084 50.3217 99.3094 50.5047C98.9983 50.6966 98.6618 50.8442 98.3099 50.9431C97.9676 51.042 97.6138 51.095 97.2577 51.1009ZM100.59 46.2784C100.561 45.7968 100.455 45.3229 100.274 44.8755C100.095 44.4723 99.8455 44.1041 99.5374 43.7883C99.2528 43.4797 98.9062 43.2347 98.5203 43.0693C98.1357 42.8917 97.7164 42.8019 97.2927 42.8063C96.8693 42.8036 96.4504 42.8934 96.0652 43.0693C95.6793 43.2347 95.3327 43.4797 95.0481 43.7883C94.7399 44.1004 94.4957 44.4697 94.3291 44.8755C94.1478 45.3219 94.0469 45.7969 94.031 46.2784H100.59Z" fill="white"/>
<path d="M108.306 51.1009C107.658 51.1079 107.014 50.9888 106.412 50.7502C105.874 50.5268 105.39 50.1921 104.991 49.7681C104.601 49.3589 104.297 48.876 104.097 48.3477C103.893 47.7857 103.792 47.1917 103.799 46.5941C103.802 45.9972 103.902 45.4048 104.097 44.8404C104.295 44.2938 104.592 43.7884 104.974 43.3498C105.371 42.9203 105.856 42.5797 106.394 42.3503C107.009 42.1414 107.657 42.0521 108.306 42.0872C108.96 42.077 109.609 42.1962 110.217 42.4379C110.747 42.6619 111.223 42.9946 111.616 43.4145C112.009 43.8344 112.309 44.3322 112.497 44.8755C112.706 45.436 112.807 46.031 112.795 46.6291C112.804 46.781 112.804 46.9332 112.795 47.0851C112.806 47.2134 112.806 47.3425 112.795 47.4709H106.517C106.514 47.7271 106.568 47.9808 106.674 48.2141C106.78 48.4474 106.936 48.6546 107.131 48.8212C107.485 49.1167 107.932 49.2781 108.393 49.2771C108.774 49.278 109.148 49.1814 109.481 48.9965C109.64 48.9198 109.783 48.812 109.9 48.6796C110.018 48.5471 110.107 48.3925 110.164 48.2249L112.356 48.8562C112.036 49.5862 111.497 50.1989 110.813 50.6099C110.04 51.0065 109.171 51.1767 108.306 51.1009ZM110.059 45.7348C110.03 45.2413 109.824 44.7748 109.481 44.4195C109.148 44.1084 108.708 43.9386 108.253 43.9461C108.023 43.9352 107.792 43.9733 107.578 44.058C107.363 44.1426 107.169 44.2718 107.008 44.4371C106.665 44.786 106.46 45.2467 106.429 45.7348H110.059Z" fill="white"/>
<path d="M128.876 50.9431H126.315V46.0329C126.353 45.5887 126.242 45.1447 126 44.7703C125.914 44.6452 125.799 44.543 125.664 44.4727C125.53 44.4024 125.38 44.3661 125.228 44.367C125.047 44.3743 124.868 44.4159 124.702 44.4897C124.524 44.5782 124.359 44.6903 124.211 44.8229C124.059 44.9712 123.924 45.1359 123.808 45.3139C123.677 45.502 123.577 45.709 123.51 45.9277V50.9431H120.949V46.0329C120.987 45.5887 120.876 45.1447 120.634 44.7703C120.549 44.6476 120.437 44.5469 120.306 44.4768C120.175 44.4066 120.028 44.3689 119.88 44.367C119.505 44.3896 119.15 44.545 118.88 44.8054C118.544 45.1052 118.301 45.4945 118.179 45.9277V50.9431H115.566V42.1749H117.88V43.648C118.176 43.1267 118.614 42.7008 119.143 42.4204C119.69 42.1568 120.289 42.019 120.897 42.0171C121.211 42.0087 121.525 42.0502 121.826 42.1399C122.075 42.2198 122.306 42.3447 122.51 42.5081C122.697 42.6564 122.853 42.8414 122.966 43.0517C123.086 43.2533 123.175 43.4721 123.229 43.7006C123.529 43.1786 123.965 42.7481 124.492 42.4555C125.028 42.1587 125.632 42.0075 126.245 42.0171C126.697 41.9903 127.148 42.0937 127.543 42.3152C127.862 42.5115 128.123 42.7902 128.297 43.1219C128.492 43.4493 128.617 43.8135 128.665 44.1916C128.691 44.5711 128.691 44.9519 128.665 45.3315L128.876 50.9431Z" fill="white"/>
<path d="M131.962 46.5765C131.95 45.9784 132.051 45.3834 132.26 44.8229C132.449 44.3007 132.735 43.8188 133.102 43.4024C133.477 43.0141 133.916 42.6937 134.4 42.4555C134.95 42.2076 135.55 42.0877 136.153 42.1047C136.858 42.0879 137.553 42.2768 138.152 42.6484C138.724 42.9971 139.176 43.5106 139.45 44.1214L138.661 44.3845C138.421 43.9202 138.057 43.5316 137.609 43.2621C137.157 42.9968 136.642 42.8575 136.118 42.8588C135.675 42.85 135.237 42.9461 134.838 43.1394C134.441 43.3254 134.088 43.5945 133.803 43.9285C133.499 44.2736 133.261 44.6719 133.102 45.1034C132.923 45.5675 132.833 46.0615 132.839 46.559C132.835 47.062 132.924 47.5615 133.102 48.032C133.267 48.4698 133.511 48.8739 133.821 49.2245C134.1 49.5686 134.454 49.8445 134.856 50.0312C135.25 50.2398 135.69 50.3483 136.136 50.3468C136.422 50.343 136.706 50.2957 136.978 50.2065C137.255 50.1251 137.52 50.0072 137.767 49.8558C138.002 49.7204 138.215 49.5488 138.398 49.3472C138.564 49.1746 138.684 48.9638 138.749 48.7335L139.538 48.979C139.429 49.2882 139.263 49.5739 139.047 49.8207C138.827 50.0832 138.567 50.3083 138.275 50.4871C137.966 50.6821 137.629 50.8298 137.276 50.9255C136.364 51.1885 135.389 51.1202 134.522 50.7326C134.03 50.4936 133.589 50.1599 133.225 49.7506C132.85 49.3266 132.553 48.8398 132.348 48.3126C132.114 47.7626 131.983 47.174 131.962 46.5765Z" fill="white"/>
<path d="M144.921 51.1009C144.198 51.0992 143.503 50.8234 142.975 50.3293C142.723 50.0908 142.52 49.8047 142.379 49.4875C142.251 49.1454 142.186 48.7831 142.186 48.4178C142.178 48.0576 142.262 47.7014 142.431 47.3832C142.617 47.0708 142.861 46.7969 143.15 46.5765C143.482 46.3323 143.857 46.1537 144.255 46.0504C144.711 45.9201 145.184 45.8551 145.658 45.8575C146.111 45.8556 146.563 45.8967 147.008 45.9803C147.429 46.0528 147.84 46.1704 148.236 46.331V45.4717C148.274 44.7611 148.035 44.0635 147.569 43.5252C147.333 43.2775 147.047 43.0836 146.729 42.9565C146.411 42.8294 146.07 42.7721 145.728 42.7887C145.289 42.7954 144.854 42.8846 144.448 43.0517C143.96 43.2583 143.495 43.517 143.063 43.8233L142.677 43.2621C143.566 42.5489 144.659 42.1374 145.798 42.0872C146.235 42.0617 146.672 42.1298 147.081 42.2871C147.489 42.4443 147.859 42.6871 148.166 42.9991C148.775 43.6877 149.09 44.5883 149.043 45.5068V49.7331C149.043 50.0136 149.148 50.1539 149.393 50.1539V50.908H149.078C148.979 50.9092 148.881 50.8895 148.79 50.8502C148.7 50.8109 148.618 50.7529 148.551 50.68C148.428 50.5243 148.355 50.3347 148.341 50.1364V49.4174C147.958 49.9437 147.444 50.3608 146.85 50.6274C146.248 50.9193 145.591 51.0807 144.921 51.1009ZM145.079 50.4345C145.685 50.4498 146.285 50.3237 146.833 50.0662C147.281 49.8498 147.663 49.5166 147.938 49.1017C148.096 48.9143 148.188 48.6803 148.201 48.4354V46.9097C147.812 46.748 147.406 46.6304 146.991 46.559C146.563 46.4809 146.128 46.4398 145.693 46.4362C145.315 46.4353 144.937 46.4824 144.571 46.5765C144.253 46.6609 143.95 46.7972 143.676 46.9799C143.445 47.1315 143.253 47.3358 143.115 47.5761C142.974 47.8213 142.901 48.0999 142.905 48.3828C142.911 48.6604 142.97 48.9343 143.08 49.1894C143.178 49.4399 143.327 49.667 143.519 49.8558C143.938 50.2303 144.482 50.4365 145.044 50.4345H145.079Z" fill="white"/>
<path d="M155.724 51.1009C155.124 51.0963 154.53 50.9835 153.97 50.7677C153.384 50.5619 152.855 50.2192 152.427 49.7681L152.83 49.207C153.233 49.5972 153.702 49.912 154.216 50.1364C154.722 50.3443 155.265 50.4458 155.812 50.4345C156.431 50.4641 157.045 50.2985 157.565 49.961C157.777 49.8148 157.949 49.6179 158.066 49.3881C158.182 49.1584 158.239 48.9032 158.232 48.6458C158.24 48.4057 158.179 48.1682 158.056 47.9619C157.933 47.7715 157.764 47.6149 157.565 47.5059C157.3 47.3557 157.017 47.238 156.723 47.1552L155.566 46.8396C155.093 46.7343 154.689 46.6116 154.339 46.5064C154.033 46.4181 153.743 46.282 153.479 46.103C153.271 45.96 153.102 45.7671 152.988 45.5419C152.861 45.2802 152.801 44.9909 152.813 44.7001C152.805 44.3063 152.889 43.9161 153.058 43.5603C153.21 43.24 153.439 42.9626 153.725 42.7536C154.014 42.5373 154.341 42.3767 154.689 42.2801C155.077 42.1725 155.479 42.1194 155.882 42.1223C156.485 42.1077 157.084 42.2275 157.635 42.473C158.095 42.6603 158.5 42.9621 158.81 43.3498L158.354 43.7882C158.074 43.4471 157.703 43.1918 157.285 43.0517C156.831 42.877 156.35 42.7878 155.864 42.7887C155.569 42.7867 155.274 42.822 154.987 42.8939C154.731 42.956 154.488 43.0629 154.268 43.2095C154.057 43.3671 153.887 43.5741 153.774 43.8126C153.66 44.0511 153.608 44.3137 153.62 44.5774C153.609 44.789 153.651 44.9999 153.742 45.1911C153.827 45.3613 153.962 45.5018 154.128 45.5945C154.341 45.7213 154.571 45.8158 154.812 45.8751L155.794 46.1556L157.197 46.5414C157.555 46.6479 157.897 46.8012 158.214 46.9974C158.465 47.1572 158.675 47.3734 158.828 47.6287C158.988 47.9114 159.067 48.2332 159.056 48.5581C159.067 48.9152 158.993 49.2698 158.841 49.5929C158.688 49.916 158.461 50.1984 158.179 50.417C157.468 50.9299 156.598 51.1724 155.724 51.1009Z" fill="white"/>
<path d="M164.439 51.1009C163.716 51.0992 163.021 50.8235 162.493 50.3293C162.246 50.0901 162.049 49.8039 161.914 49.4876C161.772 49.149 161.7 48.785 161.704 48.4178C161.703 48.0452 161.794 47.6781 161.967 47.3481C162.153 47.0357 162.397 46.7619 162.686 46.5415C163.017 46.2972 163.392 46.1187 163.791 46.0154C164.247 45.885 164.719 45.8201 165.193 45.8225C165.646 45.8197 166.099 45.8608 166.544 45.9452C166.965 46.0153 167.377 46.133 167.771 46.2959V45.4367C167.809 44.7261 167.57 44.0285 167.105 43.4901C166.88 43.2519 166.608 43.0633 166.306 42.9365C166.004 42.8097 165.679 42.7474 165.351 42.7536C164.906 42.7614 164.467 42.8505 164.054 43.0166C163.565 43.2232 163.101 43.4819 162.668 43.7882L162.37 43.2271C163.212 42.5543 164.241 42.1564 165.316 42.0872C165.756 42.0614 166.196 42.1294 166.607 42.2866C167.018 42.4438 167.391 42.6867 167.701 42.9991C168.011 43.3522 168.247 43.7638 168.394 44.2096C168.542 44.6555 168.598 45.1264 168.56 45.5945V49.8207C168.56 50.1013 168.683 50.2416 168.911 50.2416V50.9957H168.596C168.497 50.9948 168.4 50.9742 168.309 50.935C168.219 50.8958 168.137 50.839 168.069 50.7677C167.946 50.612 167.873 50.4224 167.859 50.2241V49.5051C167.479 50.0269 166.972 50.4433 166.386 50.7151C165.771 50.9787 165.108 51.1102 164.439 51.1009ZM164.597 50.4345C165.202 50.4466 165.802 50.3207 166.351 50.0663C166.825 49.8536 167.236 49.5212 167.543 49.1018C167.69 48.9092 167.776 48.6771 167.789 48.4354V46.9097C167.406 46.748 167.006 46.6304 166.596 46.559C166.168 46.4826 165.734 46.4415 165.299 46.4362C164.914 46.4342 164.531 46.4813 164.159 46.5765C163.845 46.6576 163.548 46.7942 163.282 46.9799C163.044 47.1294 162.846 47.3339 162.703 47.5761C162.568 47.823 162.502 48.1015 162.51 48.3828C162.51 48.6593 162.564 48.9333 162.668 49.1894C162.766 49.4399 162.915 49.667 163.107 49.8558C163.526 50.2303 164.07 50.4365 164.632 50.4345H164.597Z" fill="white"/>
</svg>
