<svg width="12" height="12" viewBox="0 0 12 12" fill="none" xmlns="http://www.w3.org/2000/svg">
<path d="M0.507903 0H10.666C10.9469 0 11.1739 0.227033 11.1739 0.507904V8.63437C11.1739 8.91525 10.9469 9.14228 10.666 9.14228H6.09485V11.1739C6.09485 11.3791 5.97143 11.565 5.78147 11.6432C5.71849 11.6696 5.65247 11.6818 5.58695 11.6818C5.45489 11.6818 5.32487 11.63 5.22786 11.533L2.83715 9.14228H0.507903C0.227032 9.14228 -1.90735e-06 8.91525 -1.90735e-06 8.63437V0.507904C-1.90735e-06 0.227033 0.227032 0 0.507903 0ZM1.01581 8.12647H3.04743C3.18253 8.12647 3.31154 8.1798 3.40651 8.27529L5.07904 9.94782V8.63437C5.07904 8.3535 5.30608 8.12647 5.58695 8.12647H10.1581V1.01581H1.01581V8.12647Z" fill="white"/>
<path d="M2.53957 4.06311H8.63442V5.07892H2.53957V4.06311Z" fill="white"/>
<path d="M2.53957 2.03174H8.63442V3.04755H2.53957V2.03174Z" fill="white"/>
<path d="M2.53957 6.09485H8.63442V7.11066H2.53957V6.09485Z" fill="white"/>
</svg>
