<svg width="24" height="24" viewBox="0 0 24 24" fill="none" xmlns="http://www.w3.org/2000/svg">
<path d="M3.33799 3.45734C6.81935 -0.0158095 12.4672 -0.0158095 15.9442 3.45734C19.1373 6.64255 19.3994 11.6559 16.7391 15.1466L23.1602 21.0152C23.8068 21.6043 23.7805 22.6427 23.1646 23.2622C22.5444 23.8774 21.5049 23.9037 20.9152 23.2578L15.0401 16.8438C11.5455 19.5011 6.5267 19.2393 3.33799 16.0497C-0.143629 12.5765 -0.143629 6.93488 3.33799 3.45734ZM4.42563 4.54378C1.54716 7.42348 1.54716 12.0879 4.42563 14.9632C7.30849 17.8429 11.9737 17.8429 14.8565 14.9632C17.7394 12.0835 17.7394 7.42348 14.8565 4.54378C11.9737 1.66847 7.30849 1.66847 4.42563 4.54378Z" fill="black"/>
</svg>
